<svg id="visual" viewBox="0 0 900 600" width="900" height="600" xmlns="http://www.w3.org/2000/svg" xmlns:xlink="http://www.w3.org/1999/xlink" version="1.1"><rect x="0" y="0" width="900" height="600" fill="#0d1559"></rect><defs><linearGradient id="grad1_0" x1="33.3%" y1="0%" x2="100%" y2="100%"><stop offset="20%" stop-color="#040a15" stop-opacity="1"></stop><stop offset="80%" stop-color="#040a15" stop-opacity="1"></stop></linearGradient></defs><defs><linearGradient id="grad1_1" x1="33.3%" y1="0%" x2="100%" y2="100%"><stop offset="20%" stop-color="#040a15" stop-opacity="1"></stop><stop offset="80%" stop-color="#001438" stop-opacity="1"></stop></linearGradient></defs><defs><linearGradient id="grad1_2" x1="33.3%" y1="0%" x2="100%" y2="100%"><stop offset="20%" stop-color="#0d1559" stop-opacity="1"></stop><stop offset="80%" stop-color="#001438" stop-opacity="1"></stop></linearGradient></defs><defs><linearGradient id="grad2_0" x1="0%" y1="0%" x2="66.7%" y2="100%"><stop offset="20%" stop-color="#040a15" stop-opacity="1"></stop><stop offset="80%" stop-color="#040a15" stop-opacity="1"></stop></linearGradient></defs><defs><linearGradient id="grad2_1" x1="0%" y1="0%" x2="66.7%" y2="100%"><stop offset="20%" stop-color="#001438" stop-opacity="1"></stop><stop offset="80%" stop-color="#040a15" stop-opacity="1"></stop></linearGradient></defs><defs><linearGradient id="grad2_2" x1="0%" y1="0%" x2="66.7%" y2="100%"><stop offset="20%" stop-color="#001438" stop-opacity="1"></stop><stop offset="80%" stop-color="#0d1559" stop-opacity="1"></stop></linearGradient></defs><g transform="translate(900, 0)"><path d="M0 486.7C-49 448 -97.9 409.2 -162.6 392.6C-227.4 376.1 -307.9 381.8 -344.2 344.2C-380.5 306.6 -372.6 225.7 -389 161.1C-405.3 96.5 -446 48.3 -486.7 0L0 0Z" fill="#001649"></path><path d="M0 324.5C-32.6 298.6 -65.3 272.8 -108.4 261.8C-151.6 250.7 -205.3 254.5 -229.5 229.5C-253.7 204.4 -248.4 150.5 -259.3 107.4C-270.2 64.4 -297.4 32.2 -324.5 0L0 0Z" fill="#041027"></path><path d="M0 162.2C-16.3 149.3 -32.6 136.4 -54.2 130.9C-75.8 125.4 -102.6 127.3 -114.7 114.7C-126.8 102.2 -124.2 75.2 -129.7 53.7C-135.1 32.2 -148.7 16.1 -162.2 0L0 0Z" fill="#040a15"></path></g><g transform="translate(0, 600)"><path d="M0 -486.7C72.3 -488.1 144.5 -489.4 186.3 -449.7C228 -410 239.3 -329.3 282.8 -282.8C326.4 -236.4 402.2 -224.3 441.6 -182.9C481 -141.5 483.9 -70.8 486.7 0L0 0Z" fill="#001649"></path><path d="M0 -324.5C48.2 -325.4 96.3 -326.3 124.2 -299.8C152 -273.3 159.5 -219.5 188.6 -188.6C217.6 -157.6 268.2 -149.6 294.4 -121.9C320.7 -94.3 322.6 -47.2 324.5 0L0 0Z" fill="#041027"></path><path d="M0 -162.2C24.1 -162.7 48.2 -163.1 62.1 -149.9C76 -136.7 79.8 -109.8 94.3 -94.3C108.8 -78.8 134.1 -74.8 147.2 -61C160.3 -47.2 161.3 -23.6 162.2 0L0 0Z" fill="#040a15"></path></g></svg>